<?xml version="1.0" encoding="UTF-8"?> <svg xmlns="http://www.w3.org/2000/svg" viewBox="0 0 522.5 98.5"><g><g><path d="M67.3,26.8A19.8,19.8,0,0,0,50.9,8,17,17,0,0,0,47,7.8h0A41.6,41.6,0,0,0,7.8,51.6,41.1,41.1,0,0,0,37.2,89.1a23.3,23.3,0,0,1-9-17.2c-.7-12.6,8.7-23.4,20.9-24.1C59.7,47.2,67.9,37.8,67.3,26.8ZM48.1,28.4a4.6,4.6,0,0,1,0-9.1,4.6,4.6,0,1,1,0,9.1Z" fill="#498ca9"></path><path d="M90.5,47A41.5,41.5,0,0,0,61.2,9.5a22.8,22.8,0,0,1,8.9,17.1,23.4,23.4,0,0,1-1.2,8.9,22.2,22.2,0,0,1-19.6,15C38.6,51.1,30.4,60.7,31,71.8s9.7,19.5,20.3,19h0A41.6,41.6,0,0,0,90.5,47ZM48.1,78a4.6,4.6,0,0,1-4.5-4.6,4.5,4.5,0,0,1,4.5-4.5,4.6,4.6,0,0,1,4.6,4.5A4.7,4.7,0,0,1,48.1,78Z" fill="#617583"></path><path d="M28.7,89A44.7,44.7,0,1,1,89,69.8,44.6,44.6,0,0,1,28.7,89ZM93,71.9A49.3,49.3,0,1,0,26.6,93,49.3,49.3,0,0,0,93,71.9Z" fill="#498ca9"></path></g><g><path d="M127.7,6.1h2.4l16.4,40h-3.2l-4.4-10.9h-20l-4.4,10.9h-3.2Zm10,26.4-8.8-21.8L120,32.5Z" fill="#498ca9"></path><path d="M170.8,5.4A20.1,20.1,0,0,1,186,12.2L184,14a17.2,17.2,0,0,0-13.2-5.8c-10.2,0-17.7,7.7-17.7,17.9S160.6,44,170.8,44a17.1,17.1,0,0,0,13.3-5.9l2.1,1.9a20.7,20.7,0,0,1-36.1-13.9A20.4,20.4,0,0,1,170.8,5.4Z" fill="#498ca9"></path><path d="M195.1,6.1h3V32.6c0,7.4,4.3,11.4,11.2,11.4s11.3-4,11.3-11.4V6.1h2.9V32.9c0,9-5.9,13.9-14.2,13.9s-14.2-4.9-14.2-13.9Z" fill="#498ca9"></path><path d="M233.4,6.1H245a11.7,11.7,0,0,1,12,11.8,11.6,11.6,0,0,1-12,11.9h-8.6V46.1h-3Zm11.5,21a8.8,8.8,0,0,0,9.1-9.2,8.7,8.7,0,0,0-9.1-9h-8.5V27.1Z" fill="#498ca9"></path><path d="M266.6,6.1h2.9V32.6c0,7.4,4.4,11.4,11.3,11.4S292,40,292,32.6V6.1h3V32.9c0,9-5.9,13.9-14.2,13.9s-14.2-4.9-14.2-13.9Z" fill="#498ca9"></path><path d="M304.9,6.1h2.5l25.5,34.6V6.1h3v40h-2.5L307.8,11.3V46.1h-2.9Z" fill="#498ca9"></path><path d="M365.4,5.4a20.1,20.1,0,0,1,15.2,6.8l-2,1.8a17.8,17.8,0,0,0-31,12.1c0,10.3,7.6,17.9,17.8,17.9a17.1,17.1,0,0,0,13.3-5.9l2,1.9a20,20,0,0,1-15.3,6.8,20.3,20.3,0,0,1-20.7-20.7A20.4,20.4,0,0,1,365.4,5.4Z" fill="#498ca9"></path><path d="M399.1,8.9H387.6V6.1h26.2V8.9H402.1V46.1h-3Z" fill="#498ca9"></path><path d="M423.6,6.1h2.9V32.6c0,7.4,4.4,11.4,11.3,11.4S449,40,449,32.6V6.1h3V32.9c0,9-5.9,13.9-14.2,13.9s-14.2-4.9-14.2-13.9Z" fill="#498ca9"></path><path d="M461.9,6.1h12.8a11.4,11.4,0,0,1,11.6,11.6,11.4,11.4,0,0,1-7.8,11.1l9.7,17.3h-3.3l-9.4-16.8H464.8V46.1h-2.9Zm12.5,20.5a8.8,8.8,0,0,0,9-8.9,8.7,8.7,0,0,0-8.9-8.8h-9.7V26.6Z" fill="#498ca9"></path><path d="M497.2,6.1H519V8.9H500.2V23.6h17.7v2.8H500.2V43.3h19.2v2.8H497.2Z" fill="#498ca9"></path></g><g><path d="M112.2,65H115V90.1h-2.8Z" fill="#498ca9"></path><path d="M122.4,65h2.5L140,85.1V65h2.8V90.1h-2.2L125.2,69.8V90.1h-2.8Z" fill="#498ca9"></path><path d="M150.1,65h2.5l15.1,20.1V65h2.8V90.1h-2.3L152.9,69.8V90.1h-2.8Z" fill="#498ca9"></path><path d="M177.8,65H192v2.6H180.6v8h10.7v2.5H180.6v9.4h11.6v2.6H177.8Z" fill="#498ca9"></path><path d="M198.2,65h8.6a7.4,7.4,0,0,1,7.5,7.5,7.6,7.6,0,0,1-4.8,7.1l6,10.5h-3.2l-5.6-9.9H201v9.9h-2.8Zm8.3,12.6a5,5,0,0,0,5-5.1,4.8,4.8,0,0,0-4.8-4.9H201v10Z" fill="#498ca9"></path><path d="M235.4,65h2.8V87.5h10.4v2.6H235.4Z" fill="#498ca9"></path><path d="M254.1,65h2.8V90.1h-2.8Z" fill="#498ca9"></path><path d="M275.8,64.6a12.4,12.4,0,0,1,8.6,3.2l-1.7,2a9.9,9.9,0,0,0-6.9-2.6,10.4,10.4,0,1,0,6.8,18.3V79H275V76.4h10.4V86.5a13.3,13.3,0,0,1-9.6,4.1,13,13,0,1,1,0-26Z" fill="#498ca9"></path><path d="M291.6,65h2.8V75.5h13.9V65h2.8V90.1h-2.8v-12H294.4v12h-2.8Z" fill="#498ca9"></path><path d="M323,67.6h-6.8V65h16.5v2.6h-6.9V90.1H323Z" fill="#498ca9"></path><path d="M346.4,65h2.8l5.6,19L361,65h1.9l6.2,19,5.6-19h2.8l-7.3,25.1h-1.8L362,70.7l-6.5,19.4h-1.8Z" fill="#498ca9"></path><path d="M382.5,65h14.2v2.6H385.3v8H396v2.5H385.3v9.4h11.6v2.6H382.5Z" fill="#498ca9"></path><path d="M402.9,65h2.8V87.5H416v2.6H402.9Z" fill="#498ca9"></path><path d="M421.4,65h2.8V87.5h10.3v2.6H421.4Z" fill="#498ca9"></path><path d="M439.9,65h2.5l15.1,20.1V65h2.8V90.1h-2.2L442.7,69.8V90.1h-2.8Z" fill="#498ca9"></path><path d="M466.9,65h14.2v2.6H469.7v8h10.7v2.5H469.7v9.4h11.6v2.6H466.9Z" fill="#498ca9"></path><path d="M487.9,83.5c1.1,2.7,3.1,4.5,6.3,4.5s5-3.1,5-4.4c0-3-2.1-4-5.6-5.6s-6.6-3.2-6.6-7.2,2.9-6.2,6.9-6.2a7,7,0,0,1,6.7,4l-2.4,1.2a4.3,4.3,0,0,0-4.3-2.6c-2.2,0-4.1,1.4-4.1,3.5s2.1,3.6,5.1,4.9c4.6,2.1,7.1,3.7,7.1,7.9s-2.7,7.1-7.9,7.1a8.7,8.7,0,0,1-8.6-6Z" fill="#498ca9"></path><path d="M508.3,83.5c1.2,2.7,3.1,4.5,6.3,4.5s5.1-3.1,5.1-4.4c0-3-2.1-4-5.6-5.6s-6.6-3.2-6.6-7.2,2.9-6.2,6.8-6.2a7.2,7.2,0,0,1,6.8,4l-2.4,1.2a4.3,4.3,0,0,0-4.4-2.6c-2.2,0-4,1.4-4,3.5s2.1,3.6,5.1,4.9c4.6,2.1,7.1,3.7,7.1,7.9s-2.8,7.1-7.9,7.1a8.7,8.7,0,0,1-8.7-6Z" fill="#498ca9"></path></g><line x1="109.2" y1="55.2" x2="522.2" y2="55.2" fill="none" stroke="#617583" stroke-miterlimit="10" stroke-width="1.47"></line></g></svg> 